<svg xmlns="http://www.w3.org/2000/svg" x="0px" y="0px"
width="24" height="24"
viewBox="0 0 172 172"
style=" fill:#000000;"><g fill="none" fill-rule="nonzero" stroke="none" stroke-width="1" stroke-linecap="butt" stroke-linejoin="miter" stroke-miterlimit="10" stroke-dasharray="" stroke-dashoffset="0" font-family="none" font-weight="none" font-size="none" text-anchor="none" style="mix-blend-mode: normal"><path d="M0,172v-172h172v172z" fill="none"></path><g fill="#ffffff"><path d="M35.83333,21.5c-7.83362,0 -14.33333,6.49972 -14.33333,14.33333v100.33333c0,7.83362 6.49972,14.33333 14.33333,14.33333h100.33333c7.83362,0 14.33333,-6.49972 14.33333,-14.33333v-100.33333c0,-7.83362 -6.49972,-14.33333 -14.33333,-14.33333zM50.16667,35.83333c3.956,0 7.16667,3.21067 7.16667,7.16667c0,3.956 -3.21067,7.16667 -7.16667,7.16667c-3.956,0 -7.16667,-3.21067 -7.16667,-7.16667c0,-3.956 3.21067,-7.16667 7.16667,-7.16667zM71.66667,35.83333c3.956,0 7.16667,3.21067 7.16667,7.16667c0,3.956 -3.21067,7.16667 -7.16667,7.16667c-3.956,0 -7.16667,-3.21067 -7.16667,-7.16667c0,-3.956 3.21067,-7.16667 7.16667,-7.16667zM93.16667,35.83333h43v14.33333h-43zM35.83333,64.5h100.33333v71.66667h-100.33333zM60.91667,78.83333c-5.93706,0 -10.75,4.81294 -10.75,10.75c0,5.93706 4.81294,10.75 10.75,10.75c5.93706,0 10.75,-4.81294 10.75,-10.75c0,-5.93706 -4.81294,-10.75 -10.75,-10.75zM93.16667,78.83333v14.33333h28.66667v-14.33333zM60.91667,107.5c-5.977,0 -17.91667,3.00283 -17.91667,8.95833v5.375h35.83333v-5.375c0,-5.9555 -11.93967,-8.95833 -17.91667,-8.95833zM93.16667,107.5v14.33333h28.66667v-14.33333z"></path></g></g></svg>