<svg xmlns="http://www.w3.org/2000/svg" x="0px" y="0px"
width="24" height="24"
viewBox="0 0 172 172"
style=" fill:#000000;"><g fill="none" fill-rule="nonzero" stroke="none" stroke-width="1" stroke-linecap="butt" stroke-linejoin="miter" stroke-miterlimit="10" stroke-dasharray="" stroke-dashoffset="0" font-family="none" font-weight="none" font-size="none" text-anchor="none" style="mix-blend-mode: normal"><path d="M0,172v-172h172v172z" fill="none"></path><g fill="#ffffff"><path d="M86,14.33333c-39.49789,0 -71.66667,32.16877 -71.66667,71.66667c0,39.49789 32.16877,71.66667 71.66667,71.66667h35.83333v-14.33333h-35.83333c-31.75311,0 -57.33333,-25.58023 -57.33333,-57.33333c0,-31.75311 25.58023,-57.33333 57.33333,-57.33333c31.75311,0 57.33333,25.58023 57.33333,57.33333v10.75c0,6.02582 -4.72418,10.75 -10.75,10.75c-6.02582,0 -10.75,-4.72418 -10.75,-10.75v-10.75c0,-19.70532 -16.12802,-35.83333 -35.83333,-35.83333c-19.70532,0 -35.83333,16.12802 -35.83333,35.83333c0,19.70532 16.12802,35.83333 35.83333,35.83333c10.13048,0 19.26299,-4.30806 25.7972,-11.12793c4.52278,6.69078 12.16971,11.12793 20.78614,11.12793c13.76851,0 25.08333,-11.31482 25.08333,-25.08333v-10.75c0,-39.49789 -32.16877,-71.66667 -71.66667,-71.66667zM86,64.5c11.95901,0 21.5,9.54099 21.5,21.5c0,11.95901 -9.54099,21.5 -21.5,21.5c-11.95901,0 -21.5,-9.54099 -21.5,-21.5c0,-11.95901 9.54099,-21.5 21.5,-21.5z"></path></g></g></svg>